<?xml version="1.0" encoding="iso-8859-1"?>
<!-- Generator: Adobe Illustrator 19.0.0, SVG Export Plug-In . SVG Version: 6.00 Build 0)  -->
<svg version="1.1" id="Layer_1" xmlns="http://www.w3.org/2000/svg" xmlns:xlink="http://www.w3.org/1999/xlink" x="0px" y="0px"
	 viewBox="0 0 475 475" style="enable-background:new 0 0 475 475;" xml:space="preserve">
<g>
	<path style="fill:#343434;" d="M378.382,100.033l40-0.065L418.22,0.162L318.415,0l-0.065,40l31.697,0.052l-46.965,46.965
		c-25.845-19.876-58.183-31.707-93.233-31.707c-82.89,0-150.6,66.14-153.15,148.41h40.03c2.52-60.21,52.29-108.41,113.12-108.41
		c60.82,0,110.59,48.2,113.12,108.41h40.03c-1.029-33.194-12.672-63.759-31.635-88.417l46.968-46.968L378.382,100.033z"/>
	<path style="fill:gray;" d="M323.078,208.54c0,62.43-50.8,113.23-113.23,113.23c-62.44,0-113.23-50.8-113.23-113.23
		c0-1.61,0.03-3.22,0.11-4.82h-40.03c-0.05,1.6-0.08,3.21-0.08,4.82c0,77.712,58.146,142.094,133.227,151.925v38.151h-36.569v40
		h36.569V475h40v-36.384h36.568v-40h-36.568v-38.15c75.076-9.829,133.233-74.212,133.233-151.925c0-1.61-0.03-3.22-0.08-4.82h-40.03
		C323.048,205.32,323.078,206.93,323.078,208.54z"/>
</g>
<g>
</g>
<g>
</g>
<g>
</g>
<g>
</g>
<g>
</g>
<g>
</g>
<g>
</g>
<g>
</g>
<g>
</g>
<g>
</g>
<g>
</g>
<g>
</g>
<g>
</g>
<g>
</g>
<g>
</g>
</svg>
